<svg width="151" height="24" viewBox="0 0 151 24" fill="none" xmlns="http://www.w3.org/2000/svg">
<g clip-path="url(#clip0_1_570)">
<path d="M47.72 0.613007H25.425V23.273H47.72V0.613007Z" fill="#005FFF"></path>
<path d="M11.952 23.898C18.5529 23.898 23.904 18.5483 23.904 11.949C23.904 5.34975 18.5529 0 11.952 0C5.35109 0 0 5.34975 0 11.949C0 18.5483 5.35109 23.898 11.952 23.898Z" fill="#EB0000"></path>
<path d="M48.732 0.613007L62.142 23.898L75.551 0.613007H48.732Z" fill="#23BE19"></path>
<path d="M16.915 14.839C16.2797 15.9305 15.3024 16.7822 14.1343 17.2625C12.9662 17.7427 11.6725 17.8246 10.4531 17.4956C9.23382 17.1666 8.15689 16.445 7.38894 15.4423C6.62099 14.4397 6.20483 13.2119 6.20483 11.949C6.20483 10.6861 6.62099 9.45831 7.38894 8.45567C8.15689 7.45304 9.23382 6.7314 10.4531 6.40238C11.6725 6.07336 12.9662 6.1553 14.1343 6.63552C15.3024 7.11574 16.2797 7.96749 16.915 9.059L18.624 8.065C17.7701 6.59846 16.4568 5.45415 14.8872 4.80904C13.3176 4.16394 11.5791 4.054 9.94073 4.49622C8.30235 4.93845 6.85534 5.9082 5.8235 7.25548C4.79166 8.60275 4.23249 10.2525 4.23249 11.9495C4.23249 13.6465 4.79166 15.2962 5.8235 16.6435C6.85534 17.9908 8.30235 18.9605 9.94073 19.4028C11.5791 19.845 13.3176 19.7351 14.8872 19.0899C16.4568 18.4448 17.7701 17.3005 18.624 15.834L16.915 14.839Z" fill="white"></path>
<path d="M43.66 4.56699H29.484V6.54299H35.558V19.331H37.584V6.54299H43.658V4.56699H43.66Z" fill="white"></path>
<path d="M70.641 4.56699H68.285L62.141 15.338L55.997 4.56699H53.641L62.141 19.331L70.647 4.56699H70.641Z" fill="white"></path>
<path d="M100.658 23.297V22.443H100.951C101.215 22.4767 101.484 22.456 101.74 22.382C101.996 22.3081 102.234 22.1825 102.44 22.013C102.75 21.4797 102.882 20.8615 102.817 20.248V8.162C102.889 7.54003 102.766 6.91109 102.465 6.362C102.032 6.03529 101.488 5.89293 100.951 5.966H100.658V5.112H112.719L113.088 8.503H112.038L111.993 8.203C111.845 7.248 111.563 6.658 111.152 6.452C110.044 6.1606 108.895 6.05283 107.752 6.133H105.337V13.093H107.949C108.731 13.1595 109.519 13.0569 110.258 12.792C110.572 12.599 110.731 12.139 110.731 11.426V11.156H111.802V15.884H110.735V15.638C110.785 15.1451 110.642 14.6522 110.335 14.263C110.187 14.119 109.654 13.945 107.953 13.945H105.337V20.326C105.314 20.6431 105.391 20.9595 105.557 21.2304C105.723 21.5014 105.971 21.7132 106.264 21.836C107.364 22.1935 108.521 22.3407 109.675 22.27H110.164C110.44 22.2939 110.718 22.2619 110.981 22.176C111.244 22.0901 111.487 21.952 111.696 21.77C112.104 21.2424 112.353 20.6099 112.416 19.946L112.463 19.67H113.512L113.172 23.294L100.658 23.297Z" fill="#003662"></path>
<path d="M132.65 23.297H131.782L126.535 9.197L122.064 23.297H121.178L116.576 8.254C116.412 7.61697 116.139 7.01309 115.769 6.469C115.658 6.31492 115.513 6.18927 115.344 6.10236C115.176 6.01544 114.989 5.96974 114.799 5.969H114.557V5.112H120.435V5.964H120.135C119.769 5.92907 119.4 5.9984 119.071 6.164C118.975 6.26565 118.903 6.3879 118.861 6.52148C118.819 6.65506 118.807 6.79647 118.828 6.935C118.84 7.38862 118.915 7.83833 119.052 8.271L122.338 18.994L126.706 5.112H127.547L132.67 19.068L135.91 8.279C136.067 7.78681 136.157 7.27601 136.179 6.76C136.179 6.311 135.745 6.047 134.879 5.978L134.591 5.962V5.112H139.12V5.964H138.857C138.676 5.96192 138.497 6.0051 138.337 6.08962C138.176 6.17413 138.04 6.29731 137.939 6.448C137.587 7.01614 137.326 7.63555 137.165 8.284L132.65 23.297Z" fill="#003662"></path>
<path d="M144.147 23.736C142.581 23.7417 141.023 23.4969 139.534 23.011L139.485 22.999L139.225 18.901H140.267L140.316 19.148C140.468 20.1971 140.964 21.1661 141.725 21.904C142.481 22.5592 143.457 22.9034 144.457 22.867C145.41 22.882 146.33 22.518 147.014 21.855C147.353 21.5479 147.623 21.1725 147.807 20.7535C147.99 20.3345 148.083 19.8814 148.079 19.424C148.079 18.234 147.146 16.993 145.311 15.738L143.547 14.511C142.306 13.728 141.167 12.7957 140.153 11.735C139.605 11.0449 139.316 10.185 139.335 9.30401C139.321 8.63991 139.47 7.98246 139.767 7.38862C140.065 6.79478 140.503 6.28245 141.043 5.89601C142.355 4.98654 143.93 4.5349 145.525 4.61101C147.02 4.62199 148.503 4.87736 149.915 5.36701L149.96 5.38301L150.36 8.90001H149.325L149.249 8.66001C149.057 7.71655 148.53 6.87451 147.765 6.28983C147.001 5.70515 146.05 5.41745 145.089 5.48001C144.207 5.45008 143.348 5.76092 142.689 6.34801C142.382 6.62346 142.138 6.96229 141.975 7.34109C141.812 7.71989 141.733 8.12963 141.743 8.54201C141.743 9.65701 142.543 10.769 144.112 11.85L146.67 13.604C147.841 14.3355 148.906 15.223 149.837 16.242C150.362 16.9615 150.63 17.836 150.6 18.726C150.622 19.4319 150.473 20.1327 150.168 20.7693C149.862 21.406 149.408 21.9597 148.843 22.384C147.471 23.3472 145.817 23.8231 144.143 23.736" fill="#003662"></path>
<path d="M83.452 21.875C83.0457 21.1811 82.8765 20.3737 82.97 19.575V5.49199L97.47 23.292H98.07L98.088 4.31899C97.9942 3.52274 98.1638 2.71767 98.571 2.02699C98.8526 1.80746 99.1751 1.64634 99.5197 1.5531C99.8644 1.45986 100.224 1.43636 100.578 1.48399H100.858V0.606995H93.571V1.48099H93.803C94.5419 1.38312 95.2898 1.57799 95.887 2.02399C96.2972 2.71404 96.4707 3.51925 96.381 4.31699V17.823L82.525 0.606995H78.071V1.48099H78.35C78.8459 1.55882 79.3194 1.74186 79.7387 2.01783C80.158 2.2938 80.5134 2.6563 80.781 3.08099L81.171 3.56499V19.58C81.2639 20.3786 81.0947 21.1858 80.689 21.88C80.1032 22.3233 79.3661 22.5173 78.638 22.42H78.451V23.296H85.785V22.42H85.506C84.7779 22.5167 84.0411 22.3227 83.455 21.88" fill="#003662"></path>
</g>
<defs>
<clipPath id="clip0_1_570">
<rect width="150.6" height="23.898" fill="white"></rect>
</clipPath>
</defs>
</svg>
