<?xml version="1.0" encoding="UTF-8" standalone="no"?>
<svg
   xmlns:dc="http://purl.org/dc/elements/1.1/"
   xmlns:cc="http://creativecommons.org/ns#"
   xmlns:rdf="http://www.w3.org/1999/02/22-rdf-syntax-ns#"
   xmlns:svg="http://www.w3.org/2000/svg"
   xmlns="http://www.w3.org/2000/svg"
   xmlns:sodipodi="http://sodipodi.sourceforge.net/DTD/sodipodi-0.dtd"
   xmlns:inkscape="http://www.inkscape.org/namespaces/inkscape"
   width="1000"
   height="214.03661"
   version="1.1"
   id="svg6"
   sodipodi:docname="dailyhive-color-white.svg"
   style="fill:#ffffff"
   inkscape:version="0.92.4 (5da689c313, 2019-01-14)">
  <metadata
     id="metadata12">
    <rdf:RDF>
      <cc:Work
         rdf:about="">
        <dc:format>image/svg+xml</dc:format>
        <dc:type
           rdf:resource="http://purl.org/dc/dcmitype/StillImage" />
        <dc:title></dc:title>
      </cc:Work>
    </rdf:RDF>
  </metadata>
  <defs
     id="defs10" />
  <sodipodi:namedview
     pagecolor="#ffffff"
     bordercolor="#111111"
     borderopacity="1"
     objecttolerance="10"
     gridtolerance="10"
     guidetolerance="10"
     inkscape:pageopacity="0"
     inkscape:pageshadow="2"
     inkscape:window-width="1920"
     inkscape:window-height="1017"
     id="namedview8"
     showgrid="false"
     fit-margin-top="0"
     fit-margin-left="0"
     fit-margin-right="0"
     fit-margin-bottom="0"
     inkscape:zoom="0.85615855"
     inkscape:cx="440.89057"
     inkscape:cy="155.71224"
     inkscape:window-x="1912"
     inkscape:window-y="-8"
     inkscape:window-maximized="1"
     inkscape:current-layer="svg6" />
  <path
     d="M 65.577,4.7e-4 H 0 v 166.96242 h 65.577 c 46.10492,0 83.48004,-37.37536 83.48004,-83.48004 C 149.05704,37.37817 111.68168,0 65.577,0 V 0 Z M 59.61673,137.16856 H 35.763955 V 47.70602 L 17.876829,29.81351 H 59.61673 c 29.63918,0 53.66653,24.02735 53.66653,53.66653 0,29.63918 -24.02782,53.66699 -53.667,53.66699 v 0 z M 273.26956,92.96499 c -0.13338,-28.1181 -20.92061,-46.9965 -58.78997,-46.9965 -41.16423,0 -55.41506,26.01223 -57.22279,37.32013 h 37.32013 c 1.13027,-2.48988 6.78165,-9.50086 19.90266,-9.50086 15.15224,0 23.29302,8.1464 23.29302,19.00125 H 200.9053 c -28.72022,0 -46.38105,12.89403 -46.38105,36.41381 0,23.0693 20.35547,39.58068 47.49798,39.58068 18.04696,0 29.78684,-7.78392 35.72067,-15.05068 v 12.82219 h 35.60342 V 92.9809 Z m -60.82704,50.03045 c -13.32858,0 -21.71508,-5.65137 -21.71508,-14.92805 0,-8.36497 7.01613,-12.20907 18.54821,-12.20907 h 28.49673 v 8.14359 c 0,11.76141 -10.85485,18.99587 -25.32986,18.99587 z M 291.73212,0.41092 h 35.60342 v 35.60343 h -35.60342 z m 0,47.47108 h 35.60342 V 166.55477 H 291.73212 Z M 345.13726,0.41092 h 35.60342 V 166.55501 H 345.13726 Z M 457.64991,214.03661 H 420.08454 L 440.13604,165.4245 386.67216,47.882 h 42.40099 l 29.95743,72.12932 29.95205,-72.12932 h 37.7947 z"
     id="path2"
     style="fill:#031831;fill-opacity:1;stroke-width:0.23401135"
     inkscape:connector-curvature="0" />
  <path
     d="m 647.75605,0.41092 v 47.47155 l 17.79657,17.79656 H 576.54921 V 0.41326 h -35.60343 v 166.14409 h 35.60343 V 119.0858 L 558.7475,101.28409 h 89.00855 v 65.27279 h 35.59781 V 0.41092 Z M 701.15581,47.882 h 35.60342 v 118.67277 h -35.60342 z m 0,-47.47108 h 35.60342 v 35.60343 h -35.60342 z m 130.31694,166.14409 h -37.3681 L 742.69352,47.88223 h 41.44341 l 29.44565,73.82473 29.43816,-73.83245 h 37.59205 z M 1000,107.89304 v 6.34966 h -89.12603 c 1.80727,14.70411 12.6675,25.78805 28.95516,25.78805 14.47501,0 20.58477,-6.5577 22.62137,-9.06326 h 36.4192 c -1.8126,13.79778 -18.5482,37.7788 -59.04057,37.7788 -40.03934,0 -65.1504,-26.01738 -65.1504,-61.53025 0,-37.09618 25.78805,-61.53024 62.66052,-61.53024 37.34115,0 62.66055,23.98078 62.66055,62.20724 z M 911.5512,91.85063 h 51.5766 c -3.3749,-12.4597 -12.4382,-19.47045 -25.76468,-19.47045 -13.59513,0 -22.39208,7.46403 -25.80958,19.47045 z"
     id="path4"
     inkscape:connector-curvature="0"
     style="fill:#14ccdc;stroke-width:0.23401135" />
</svg>
