<svg width="111" height="24" viewBox="0 0 111 24" fill="none" xmlns="http://www.w3.org/2000/svg">
<path fill-rule="evenodd" clip-rule="evenodd" d="M20.4645 14.0365L20.506 11.9736C20.9132 12.0189 21.1848 12.0415 21.3205 12.0415C21.6109 12.0415 21.8278 11.9774 21.973 11.8511C22.1181 11.7247 22.2124 11.5475 22.2577 11.3212C22.3029 11.0949 22.3256 10.7913 22.3256 10.4123V3.44689H26.1269V9.95036C26.1269 10.8818 26.0138 11.6549 25.7875 12.2659C25.5613 12.8768 25.1521 13.3501 24.5581 13.6839C23.966 14.0195 23.1401 14.1854 22.0804 14.1854C21.5015 14.1854 20.9623 14.1364 20.4645 14.0365ZM22.6235 2.40226C22.2879 2.18542 22.1219 1.83658 22.1219 1.35764C22.1219 0.878694 22.2897 0.543055 22.6235 0.32621C22.9572 0.109365 23.4928 0 24.2263 0C24.9598 0 25.4934 0.109365 25.829 0.32621C26.1647 0.543055 26.3306 0.888121 26.3306 1.35764C26.3306 1.82716 26.1628 2.18542 25.829 2.40226C25.4934 2.61911 24.9598 2.72847 24.2263 2.72847C23.4928 2.72847 22.9591 2.61911 22.6235 2.40226ZM0.360181 11.5116H4.16157V1.11249H0.360181V11.5116ZM15.5525 7.37081C15.5525 6.00375 15.1188 4.96289 14.2495 4.24825H14.2514C13.3821 3.5336 12.1037 3.17534 10.4368 3.17534C8.76994 3.17534 7.48961 3.5336 6.59394 4.24825C5.69828 4.96289 5.2495 5.99055 5.2495 7.32933V7.54618C5.2495 8.91324 5.69451 9.96164 6.5864 10.6895C7.47829 11.4192 8.75674 11.7831 10.4217 11.7831C11.9887 11.7831 13.1936 11.4965 14.0402 10.9214C14.885 10.3463 15.3111 9.5732 15.4827 8.72657L11.7907 8.73034C11.5701 9.29791 11.0553 9.44687 10.4481 9.44687C9.48458 9.45064 8.94341 8.81519 9.00941 7.80828H15.5525V7.37081ZM11.8868 6.77119H9.03581V6.7693C9.10746 5.91324 9.61469 5.49652 10.4481 5.49652C10.8818 5.49652 11.2193 5.60211 11.4588 5.80953C11.6983 6.01883 11.8699 6.37898 11.8868 6.77119ZM20.5173 16.4651C21.3866 17.1798 21.8203 18.2206 21.8203 19.5877V20.0251H15.2772C15.2112 21.0321 15.7524 21.6675 16.7159 21.6637C17.3231 21.6637 17.8379 21.5148 18.0585 20.9472L21.7505 20.9434C21.5789 21.7901 21.1528 22.5632 20.308 23.1383C19.4614 23.7134 18.2565 24 16.6895 24C15.0245 24 13.7461 23.6361 12.8542 22.9063C11.9623 22.1785 11.5173 21.1301 11.5173 19.763V19.5462C11.5173 18.2074 11.9661 17.1798 12.8617 16.4651C13.7574 15.7505 15.0377 15.3922 16.7046 15.3922C18.3715 15.3922 19.6499 15.7505 20.5192 16.4651H20.5173ZM15.3036 18.9881H18.1547C18.1377 18.5958 17.9661 18.2357 17.7266 18.0264C17.4871 17.819 17.1496 17.7134 16.7159 17.7134C15.8825 17.7134 15.3753 18.1301 15.3036 18.9862V18.9881ZM94.9988 19.5877C94.9988 18.2206 94.5651 17.1798 93.6959 16.4651H93.6978C92.8285 15.7505 91.5501 15.3922 89.8832 15.3922C88.2163 15.3922 86.936 15.7505 86.0403 16.4651C85.1446 17.1798 84.6959 18.2074 84.6959 19.5462V19.763C84.6959 21.1301 85.1409 22.1785 86.0328 22.9063C86.9246 23.6361 88.2031 24 89.8681 24C91.435 24 92.6399 23.7134 93.4866 23.1383C94.3313 22.5632 94.7575 21.7901 94.9291 20.9434L91.237 20.9472C91.0164 21.5148 90.5016 21.6637 89.8945 21.6637C88.9309 21.6675 88.3898 21.0321 88.4558 20.0251H94.9988V19.5877ZM91.3332 18.9881H88.4822V18.9862C88.5538 18.1301 89.061 17.7134 89.8945 17.7134C90.3282 17.7134 90.6657 17.819 90.9052 18.0264C91.1446 18.2357 91.3162 18.5958 91.3332 18.9881ZM27.1056 7.58766C27.1056 8.93587 27.5619 9.97295 28.4765 10.697H28.4746C29.3891 11.4211 30.692 11.7831 32.4117 11.7831C34.1314 11.7831 35.4476 11.4211 36.3564 10.697C37.2672 9.97295 37.7216 8.93587 37.7216 7.58766V7.37081C37.7216 6.03203 37.2653 4.99683 36.3508 4.26899C35.4362 3.53926 34.1239 3.17534 32.4136 3.17534C30.7034 3.17534 29.391 3.53737 28.4765 4.26145C27.5619 4.98552 27.1056 6.0226 27.1056 7.37081V7.58766ZM33.907 7.69702C33.907 8.22311 33.775 8.61343 33.5129 8.87176C33.2508 9.13009 32.885 9.25831 32.4136 9.25831C31.9422 9.25831 31.5745 9.13009 31.3068 8.87176C31.0409 8.61343 30.907 8.22122 30.907 7.69702V7.26333C30.907 6.74856 31.039 6.35824 31.3068 6.09614C31.5745 5.83404 31.9516 5.70205 32.4136 5.70205C32.8756 5.70205 33.2395 5.83404 33.5073 6.09614C33.7731 6.35824 33.907 6.74668 33.907 7.26333V7.69702ZM45.298 3.44685H49.0994V11.5116H45.298V10.7913L45.3923 9.86734H45.3659C45.0679 10.4915 44.6456 10.9667 44.1025 11.2929C43.5595 11.6191 42.9221 11.7812 42.1886 11.7812C41.0836 11.7812 40.2295 11.4758 39.6223 10.8648C39.0151 10.2539 38.7134 9.28846 38.7134 7.96665V3.44496H42.528V7.61216C42.528 8.12881 42.6298 8.50971 42.8335 8.75861C43.0371 9.00751 43.352 9.13196 43.7763 9.13196C44.2741 9.13196 44.6512 8.9698 44.9095 8.64359C45.1679 8.31737 45.2961 7.89311 45.2961 7.36703V3.44308L45.298 3.44685ZM57.6148 6.1093V3.28466L57.6129 3.28654C57.3414 3.213 57.0246 3.17718 56.6626 3.17718C56.0026 3.17718 55.4388 3.34311 54.9731 3.67875C54.5073 4.01439 54.1528 4.48956 53.9077 5.10427H53.8813L53.9756 4.16712V3.44682H50.1874V11.5153H53.9888V8.33809C53.9888 7.56876 54.1943 6.98799 54.6073 6.59955C55.0202 6.20923 55.6104 6.01502 56.3797 6.01502C56.8323 6.01502 57.2433 6.04519 57.6148 6.1093ZM68.0403 4.0917C68.6474 4.70263 68.9491 5.66807 68.9491 6.98988V11.5116H65.1345V7.34437C65.1345 6.82771 65.0327 6.44682 64.8291 6.19792C64.6254 5.94902 64.3105 5.82457 63.8863 5.82457C63.3885 5.82457 63.0113 5.98673 62.753 6.31294C62.4947 6.63915 62.3665 7.06342 62.3665 7.5895V11.5135H58.5651V3.44682H62.3665V4.16712L62.2722 5.09107H62.2986C62.5965 4.46693 63.0189 3.99176 63.5619 3.66555C64.105 3.33934 64.7423 3.17718 65.4758 3.17718C66.5808 3.17718 67.435 3.48264 68.0421 4.09358L68.0403 4.0917ZM81.0981 11.5116H84.8995V1.11249H81.0981V11.5116ZM6.66563 13.3275H10.467V23.7266H6.66563V23.1421L6.73351 22.2332H6.70711C6.41673 22.8309 6.00755 23.274 5.47769 23.5644C4.94784 23.8548 4.34444 23.9981 3.66562 23.9981C2.49843 23.9981 1.59522 23.6342 0.957889 22.9045C0.320553 22.1766 0 21.1509 0 19.829V19.5311C0 18.2187 0.318668 17.2005 0.957889 16.4764C1.59522 15.7524 2.49843 15.3903 3.66562 15.3903C4.34444 15.3903 4.94595 15.5355 5.47204 15.824C5.99623 16.1144 6.40918 16.5575 6.70711 17.1553H6.73351L6.66563 16.2181V13.3275ZM6.28473 21.0528C6.54683 20.7718 6.67882 20.4192 6.67882 19.9931V19.4086C6.67882 18.9824 6.54683 18.6279 6.28473 18.3432C6.02263 18.0585 5.66437 17.9152 5.21182 17.9152C4.75928 17.9152 4.38781 18.0603 4.15211 18.3488C3.91641 18.6392 3.7995 19.005 3.7995 19.4482V19.9648C3.7995 20.4268 3.91452 20.7926 4.14645 21.0641C4.3765 21.3356 4.73288 21.4714 5.21182 21.4714C5.66437 21.4714 6.02263 21.3319 6.28473 21.0509V21.0528ZM28.4878 15.6637V23.7284L28.4897 23.7341H32.2911V19.7555C32.2911 19.3029 32.4117 18.9032 32.6569 18.56C32.902 18.2149 33.2358 18.0433 33.6619 18.0433C34.0598 18.0433 34.3407 18.1753 34.5029 18.4431C34.6669 18.7089 34.748 19.0427 34.748 19.4406V23.7303H38.5626V19.7385C38.5626 19.269 38.6833 18.8673 38.9284 18.5373C39.1735 18.2074 39.5261 18.0414 39.9334 18.0414C40.3407 18.0414 40.6236 18.181 40.782 18.4563C40.9403 18.7335 41.0195 19.1011 41.0195 19.5631V23.7303H44.8341V19.3444C44.8341 18.2225 44.6154 17.2834 44.1817 16.5273C43.748 15.7712 42.8788 15.394 41.5758 15.394C40.8875 15.394 40.2634 15.56 39.7015 15.8956C39.1396 16.2313 38.7097 16.7064 38.4117 17.3211H38.3853C38.1874 16.7328 37.831 16.2652 37.32 15.9164C36.809 15.5675 36.1547 15.394 35.3589 15.394C34.6518 15.394 34.0277 15.5562 33.4846 15.8824C32.9416 16.2086 32.5192 16.6838 32.2213 17.3079H32.1949L32.2892 16.384V15.6637H28.4878ZM47.1383 22.9139C46.2238 22.1898 45.7674 21.1527 45.7674 19.8045V19.5877C45.7674 18.2395 46.2238 17.2024 47.1383 16.4783C48.0528 15.7542 49.3652 15.3922 51.0754 15.3922C52.7857 15.3922 54.0981 15.7561 55.0126 16.4859C55.9271 17.2137 56.3834 18.2489 56.3834 19.5877V19.8045C56.3834 21.1527 55.929 22.1898 55.0182 22.9139C54.1094 23.638 52.7932 24 51.0735 24C49.3539 24 48.0509 23.638 47.1364 22.9139H47.1383ZM52.1747 21.0886C52.4368 20.8303 52.5688 20.44 52.5688 19.9139V19.4802C52.5688 18.9635 52.435 18.5751 52.1691 18.313C51.9013 18.0509 51.5374 17.9189 51.0754 17.9189C50.6135 17.9189 50.2363 18.0509 49.9686 18.313C49.7008 18.5751 49.5688 18.9654 49.5688 19.4802V19.9139C49.5688 20.4381 49.7027 20.8303 49.9686 21.0886C50.2363 21.3469 50.604 21.4752 51.0754 21.4752C51.5468 21.4752 51.9126 21.3469 52.1747 21.0886ZM67.665 19.2068C67.665 17.885 67.3633 16.9195 66.7562 16.3086L66.758 16.3124C66.1509 15.7014 65.2967 15.396 64.1917 15.396C63.4582 15.396 62.8209 15.5581 62.2778 15.8843C61.7348 16.2106 61.3124 16.6857 61.0145 17.3099H60.9881L61.0824 16.3859V15.6656H57.281V23.7304H61.0824V19.8064C61.0824 19.2803 61.2106 18.8561 61.4689 18.5299C61.7272 18.2036 62.1044 18.0415 62.6022 18.0415C63.0264 18.0415 63.3413 18.1659 63.545 18.4148C63.7486 18.6637 63.8504 19.0446 63.8504 19.5613V23.7285H67.665V19.2068ZM75.6336 23.6869C74.7644 23.8944 73.9008 23.9999 73.0409 23.9999C71.8096 23.9999 70.9234 23.7058 70.3803 23.1175C69.8373 22.5292 69.5658 21.6788 69.5658 20.5644V18.1885H68.4118V15.6637H69.5658V13.9251H73.3671V15.6637H75.4583V18.1885H73.3671V20.1571C73.3671 20.5908 73.4426 20.9113 73.5915 21.115C73.7405 21.3186 74.0139 21.4204 74.4137 21.4204C74.8134 21.4204 75.1868 21.379 75.5677 21.2979L75.6355 23.6869H75.6336ZM84.0114 18.3243V15.4997L84.0095 15.5053C83.738 15.4318 83.4212 15.396 83.0591 15.396C82.3992 15.396 81.8354 15.5619 81.3696 15.8975C80.9039 16.2332 80.5494 16.7084 80.3043 17.3231H80.2779L80.3722 16.3859V15.6656H76.584V23.7304H80.3854V20.5531C80.3854 19.7838 80.5928 19.203 81.0038 18.8146C81.4168 18.4243 82.007 18.23 82.7763 18.23C83.2289 18.23 83.6399 18.2602 84.0114 18.3243ZM110.727 23.7285H106.925V13.3294H110.727V23.7285ZM79.567 4.96476C79.2823 4.39342 78.7807 3.9503 78.0604 3.63352L78.0585 3.63163C77.3401 3.31485 76.3502 3.15646 75.0925 3.15646C73.3803 3.15646 72.1415 3.45439 71.3854 4.06532C70.6971 4.62346 70.3313 5.20235 70.1842 6.08481H73.8555L73.8668 6.04144C73.9385 5.81517 74.0233 5.72655 74.1346 5.62095C74.3118 5.45313 74.5984 5.37582 74.9699 5.37017C75.3866 5.36451 75.694 5.47199 75.8939 5.67563C76.0918 5.87928 76.1918 6.15458 76.1918 6.49776V6.90505C75.8844 6.81454 75.513 6.73534 75.0793 6.66746C74.6456 6.59958 74.193 6.56564 73.7216 6.56564C72.4281 6.56564 71.4608 6.7806 70.8235 7.21052C70.1842 7.64044 69.8656 8.29286 69.8656 9.17155C69.8656 9.94088 70.1296 10.5669 70.6538 11.0458C71.1779 11.5267 71.9925 11.7661 73.0975 11.7661C73.8668 11.7661 74.5192 11.6115 75.0529 11.3042C75.5865 10.9968 75.99 10.5631 76.2615 10.0012H76.2879L76.2069 10.8573V11.4946H79.9951V7.0691C79.9951 6.23566 79.8517 5.53421 79.567 4.96476ZM76.1805 8.12692C76.1258 8.52479 75.9674 8.84534 75.7053 9.09047L75.7072 9.09236C75.4451 9.3356 75.0868 9.45816 74.6343 9.45816C73.946 9.45816 73.6028 9.18287 73.6028 8.65678C73.6028 8.1307 73.995 7.8686 74.7832 7.8686C75.0095 7.8686 75.2509 7.895 75.5092 7.94402C75.7656 7.99305 75.99 8.05527 76.1805 8.12692ZM103.922 15.8673C104.642 16.1841 105.143 16.6272 105.428 17.1986C105.713 17.768 105.856 18.4695 105.856 19.3029V23.7284H102.068V23.0911L102.149 22.235H102.123C101.851 22.7969 101.448 23.2306 100.914 23.538C100.38 23.8453 99.7279 24 98.9586 24C97.8536 24 97.0391 23.7605 96.5149 23.2797C95.9906 22.8007 95.7267 22.1747 95.7267 21.4054C95.7267 20.5267 96.0453 19.8742 96.6846 19.4443C97.3219 19.0144 98.2892 18.7994 99.5827 18.7994C100.054 18.7994 100.507 18.8334 100.94 18.9013C101.374 18.9692 101.746 19.0483 102.053 19.1389V18.7316C102.053 18.3884 101.953 18.1131 101.755 17.9094C101.555 17.7058 101.248 17.5983 100.831 17.604C100.46 17.6096 100.173 17.6869 99.9957 17.8548C99.8844 17.9604 99.7996 18.049 99.7279 18.2752L99.7166 18.3186H96.0453C96.1924 17.4362 96.5582 16.8573 97.2465 16.2991C98.0026 15.6882 99.2414 15.3903 100.954 15.3903C102.211 15.3903 103.201 15.5487 103.92 15.8654L103.922 15.8673ZM101.566 21.3243C101.828 21.0791 101.987 20.7586 102.042 20.3607C101.851 20.2891 101.627 20.2269 101.37 20.1778C101.112 20.1288 100.871 20.1024 100.644 20.1024C99.8562 20.1024 99.4639 20.3645 99.4639 20.8906C99.4639 21.4167 99.8071 21.692 100.495 21.692C100.948 21.692 101.306 21.5694 101.568 21.3262L101.566 21.3243ZM92.7909 14.075L86.6669 14.8085C86.3494 14.8465 86.0613 14.62 86.0233 14.3026L86.023 14.3007C85.985 13.9833 86.2115 13.6951 86.529 13.6571L92.653 12.9236C92.9705 12.8856 93.2586 13.1121 93.2966 13.4295L93.2969 13.4314C93.3349 13.7488 93.1084 14.037 92.7909 14.075Z" fill="white"/>
</svg>
