<?xml version="1.0" encoding="utf-8"?>
<!-- Generator: Adobe Illustrator 25.4.1, SVG Export Plug-In . SVG Version: 6.00 Build 0)  -->
<svg version="1.1"
	 id="svg2" sodipodi:docname="MobileSyrup_logo_hor_colour.ai" xmlns:cc="http://creativecommons.org/ns#" xmlns:dc="http://purl.org/dc/elements/1.1/" xmlns:inkscape="http://www.inkscape.org/namespaces/inkscape" xmlns:rdf="http://www.w3.org/1999/02/22-rdf-syntax-ns#" xmlns:sodipodi="http://sodipodi.sourceforge.net/DTD/sodipodi-0.dtd" xmlns:svg="http://www.w3.org/2000/svg"
	 xmlns="http://www.w3.org/2000/svg" xmlns:xlink="http://www.w3.org/1999/xlink" x="0px" y="0px" viewBox="0 0 1414.6 213.1"
	 style="enable-background:new 0 0 1414.6 213.1;" xml:space="preserve">
<style type="text/css">
	.st0{fill:#7B223F;}
	.st1{fill:#E91D51;}
</style>
<sodipodi:namedview  bordercolor="#666666" borderopacity="1" gridtolerance="10" guidetolerance="10" id="namedview4" inkscape:pageopacity="0" inkscape:pageshadow="2" inkscape:window-height="480" inkscape:window-width="640" objecttolerance="10" pagecolor="#ffffff">
	</sodipodi:namedview>
<g id="g10" transform="matrix(1.3333333,0,0,-1.3333333,0,713.32667)" inkscape:groupmode="layer" inkscape:label="MobileSyrup_logo_hor_colour">
	<g>
		<g id="g14">
			<g id="g20" transform="translate(688.8366,170.6041)">
				<path id="path22" class="st0" d="M-86.8,206.1c6.5,0.6,11.4,3.9,14.5,9.5c1.7,3,3.2,6.1,4.4,9.4c9.6,27.1,19.1,54.3,28.7,81.5
					c1.5,4.2,2.9,8.4,4.5,12.8c-5.9,0-11.7,0.1-17.4,0c-4.5-0.1-7.4-2.6-8.8-7.1c-5-16.6-9.9-33.1-14.8-49.6
					c-0.2-0.6-0.4-1.1-0.7-2.1c-0.4,1-0.6,1.5-0.7,2c-5.5,18.4-11,36.8-16.5,55.2c-0.4,1.3-0.9,1.8-2.3,1.7c-7.2-0.1-14.5,0-21.7,0
					c-0.5,0-1-0.1-1.7-0.1c0.3-0.8,0.4-1.4,0.6-2c8-22.2,16.1-44.2,24.2-66.3c2-5.6,4.2-11.2,6-16.8c1.5-4.6-0.2-7.8-4.7-9.5
					c-2.2-0.8-4.6-1.1-7-1.4c-2.2-0.2-4.4,0-6.6,0v-18.3C-100,205.2-93.4,205.4-86.8,206.1"/>
			</g>
			<g id="g24" transform="translate(870.8034,283.8243)">
				<path id="path26" class="st0" d="M-86.8,206.1c-2,0-4.1,0.1-6.1-0.3c-5.1-1-8.3-5.4-8.3-11.1c0-14.3,0-28.7,0-43
					c0-5.3-2.2-9.3-7.1-11.7c-5.8-2.8-11.5-2.8-17.2,0.4c-5.3,3-6.3,7.9-6.3,13.5c0,16.7,0,33.3,0,50v2.1h-22.9v-2.2
					c0-15.9-0.1-31.9,0-47.8c0-3.6,0.4-7.3,1.1-10.8c1.6-8.8,6.1-14.8,14.1-18.8c18.8-9.5,54.6-8,59.7,17.4c0.8,4,1.3,8,1.3,12.1
					c0.1,15.9,0,31.8,0,47.8v2.4C-81.4,206.1-84.1,206.1-86.8,206.1"/>
			</g>
			<g id="g28" transform="translate(438.4484,306.8755)">
				<path id="path30" class="st0" d="M-86.8,206.1c0-35,0-70.1,0-105.1c0-1.3,0.3-1.8,1.7-1.7c6.6,0.1,13.2,0,19.7,0
					c0.5,0,0.9,0.1,1.4,0.1c0,0.6,0.1,1.1,0.1,1.5c0,32.1,0,64.1,0,96.2c0,5.2-3.1,9.5-8.3,10.1c-4.7,0.7-9.6,0.2-14.5,0.2
					C-86.7,207-86.8,206.6-86.8,206.1"/>
			</g>
			<g id="g32" transform="translate(772.6169,282.0963)">
				<path id="path34" class="st0" d="M-86.8,206.1c-8-1.9-15.1-5.2-20.6-11.5c-6.4-7.2-9.3-15.9-9.5-25.3
					c-0.3-14.6-0.1-29.2-0.2-43.9c0-0.4,0.1-0.9,0.2-1.5c7,0,13.9,0,20.7,0c1.5,0,2,0.4,2,2c-0.1,8.7-0.1,17.4,0,26.1
					c0,6-0.1,11.9,0.1,17.9c0.3,8.9,5.4,14.3,14.3,15.2c3.1,0.3,6.2,0.2,9.3,0.3c0.8,0,1.6,0,2.5,0v22.4
					C-74.4,208.1-80.7,207.6-86.8,206.1"/>
			</g>
			<g id="g36" transform="translate(402.5114,200.147)">
				<path id="path38" class="st0" d="M-86.8,206.1h22.7c0,0.5,0.1,0.9,0.1,1.3c0,24.1,0,48.1,0,72.2c0,4.8-4.1,9.6-8.9,10
					c-4.6,0.3-9.2,0.1-13.9,0.1V206.1z"/>
			</g>
			<g id="g40" transform="translate(402.5089,291.313)">
				<path id="path42" class="st0" d="M-86.8,206.1H-64c0,2.3,0,4.4,0,6.5c0,5.4-4.3,10.2-9.7,10.5c-4.3,0.2-8.6,0-13.1,0
					C-86.8,223.1-86.8,206.1-86.8,206.1z"/>
			</g>
			<g id="g44" transform="translate(630.5778,230.1978)">
				<path id="path46" class="st0" d="M-86.8,206.1c0,5.3-3.2,8.9-10,10.9c-6.5,1.9-13.9,3.9-21.9,6c-21.6,5.5-32.2,15.5-32.2,30.1
					c0.5,23.2,14.3,34.5,41.5,34.3c25.8,0,39.3-11.3,40.6-34.2h-12.7c-4.7,0-7.9,2.3-10,6.5c-3.7,6.3-10.4,9.4-19.9,9.4
					c-11.7-0.2-17.5-4.5-18-13c0-7,7-12,21.4-15.2c8.3-1.9,17-4.4,26.2-7.6c12.3-4.2,18.2-13.3,17.5-27.2
					c-1.3-21.5-15.9-32.2-43.7-32.2c-29.2,0-43.9,12.1-44.5,36.1h21.9c0.8-11.7,8.3-17.5,22.7-17.5C-93.6,192.5-86.6,197-86.8,206.1
					"/>
			</g>
			<g id="g48" transform="translate(198.8151,263.1422)">
				<path id="path50" class="st0" d="M-86.8,206.1L-86.8,206.1v48.5c-6.7,0-13.4,0.6-19.9-0.1c-7-0.8-11.6-4.9-13.9-11.5h-0.2
					l-21.7-76.9V166l-14.5,46.6l-7.8,30.3h-0.2c-2.2,6.7-6.8,10.7-13.9,11.5c-6.5,0.7-13.2,0.1-19.9,0.1v-11.6l0.1-101.6h21.5v79.8
					l22.7-79.8h0.1h11.3h0.5h11.4l22.8,80.1v-65.6l0,0c0-2.4,0-2.6,0-4.2c0-5,2.7-9,7.3-9.8c4.6-0.7,9.5-0.5,14.2-0.7
					C-86.7,141.9-86.8,206.1-86.8,206.1"/>
			</g>
			<g id="g52" transform="translate(947.072,227.7388)">
				<path id="path54" class="st0" d="M-86.8,206.1c-3.3-7.2-8.7-10.9-16.8-10.7c-7.3,0.2-13.2,4.4-16,11.5c-2.3,5.8-2.5,11.9-1.9,18
					c0.3,3.2,0.9,6.4,2,9.4c2.5,7.1,8.2,11,15.8,11.3c7.5,0.3,13.5-3.5,16.6-10.2c1.9-4.2,2.8-8.7,2.8-13.7
					C-84.2,215.4-84.7,210.6-86.8,206.1 M-74.9,255.2c-11.2,9.2-27.1,10.5-40.7,7.4c-9.4-2.2-18.4-7.5-23.4-15.8
					c-7.7-12.9-4.9-29.7-4.9-44.1c-0.1-17.7,0-35.3,0-53c0-0.7,0.1-1.4,0.1-2.2c3.8,0,7.3,0,10.9,0c6.6,0,11.3,4.7,11.3,11.3
					c0,9.4,0,18.7,0,28.1c0,0.6,0.1,1.2,0.1,1.8c1.9-2,3.6-4.2,5.7-6c11.9-9.7,29.9-7.2,40.7,2.8c7.2,6.7,11.5,16.2,13,25.9
					c0.1,0.8,0.2,1.6,0.3,2.3C-60.3,228.3-63.2,245.5-74.9,255.2"/>
			</g>
			<g id="g56" transform="translate(367.0675,242.8404)">
				<path id="path58" class="st0" d="M-86.8,206.1c0-5.6-0.5-10.4-2.5-15.1c-3.5-8.3-9.8-11.2-17-11c-8.3,0.3-14,4.7-16.2,12.7
					c-2.4,8.5-2.6,17.1,0.3,25.5c2.8,7.8,8.4,11.7,16.5,11.9c7.6,0.1,13.6-3.9,16.6-11.3C-87.2,214.6-86.7,210.1-86.8,206.1
					 M-76,239.3c-7.4,7.8-16.5,10.5-27,9.7c-7.2-0.6-13.3-3.5-18.2-8.8c-0.9-1-1.7-2.1-2.8-3.4c0,0.9-0.1,1.5-0.1,2
					c0,7.4,0,14.8,0,22.2c0,5.6-3.8,9.6-8.8,10.7c-1,0.2-2,0.3-3,0.3c-0.9,0-10.5,0.1-10.5,0c0-0.4-0.1-0.7-0.1-1.1
					c0-24.2-0.1-48.5,0.1-72.7c0.1-21.3,17.3-36.3,38.5-37.4c33.2-1.7,48.5,27.4,42.7,56.9C-66.8,225.9-70.2,233.2-76,239.3"/>
			</g>
			<g id="g60" transform="translate(495.6837,250.5318)">
				<path id="path62" class="st0" d="M-86.8,206.1c-0.5,8.1,5,16.6,15.5,17c10,0.4,17-4.4,17.6-17H-86.8z M-56.3,239.5
					c-6.5,1.8-13.2,2.3-19.9,1.6c-14.8-1.5-25.5-8.7-30.7-22.7c-5-13.6-4.9-27.6,0.1-41.2c4-10.9,11.8-18.3,23.2-21.4
					c10.3-2.8,20.6-2.5,30.7,1.3c7.7,2.9,14,7.8,18,15.1c1.6,2.9,2.7,6,4,9.1c-6.7,0-13,0.1-19.2,0c-2.2,0-4.1-1.2-5.4-2.9
					c-2.8-3.9-6.8-5.4-11.2-5.8c-6.7-0.8-12.7,0.5-16.8,6.4c-2.6,3.8-3.4,8.1-3.5,12.9h2.5c17.5,0,34.9,0,52.4,0
					c1.2,0,2.2-0.1,2.2,1.7c0,6.1-0.1,12.2-1.5,18.2C-34.5,225.6-42.3,235.4-56.3,239.5"/>
			</g>
			<g id="g64" transform="translate(272.404,242.7076)">
				<path id="path66" class="st0" d="M-86.8,206.1c0-5.6-0.5-10.5-2.5-15.1c-3.5-8.4-9.8-11.2-17-11c-8.4,0.3-14,4.7-16.3,12.7
					c-2.4,8.5-2.7,17.1,0.3,25.6c2.8,7.8,8.4,11.8,16.5,11.9c7.6,0.1,13.6-3.9,16.7-11.3C-87.2,214.6-86.7,210.1-86.8,206.1
					 M-67.4,226.2c-4.8,11.6-13,19.1-25.5,21.5c-7.3,1.4-14.7,1.5-22.2,0.9c-15-1.2-27-11-31.1-25.4c-3.5-12.2-3.2-24.4,0.3-36.5
					c3.1-10.7,9.8-18,20.2-21.8c11.4-4.2,23-4.1,34.6-1.5c10.1,2.3,17.4,8.4,22.2,17.5c4,7.6,5.4,15.9,5.3,24.4
					C-63.7,213.6-64.7,219.7-67.4,226.2"/>
			</g>
			<g id="g68" transform="translate(1032.4928,254.734)">
				<path id="path70" class="st1" d="M-86.8,206.1c-0.1,0.1-0.2,0.2-0.3,0.3h-0.1c-0.1,0.1-0.2,0.1-0.3,0.1s-0.2,0-0.2,0
					c-0.3,0-0.6-0.2-0.8-0.4c-0.2-0.1-0.3-0.3-0.3-0.5c0-0.1-0.1-0.2-0.1-0.4c0-0.2,0.1-0.5,0.3-0.6c0.2-0.2,0.4-0.4,0.7-0.4
					c0.1,0,0.2,0,0.3,0s0.1,0,0.2,0h0.1c0.1,0,0.2,0.1,0.3,0.1c0.2,0.1,0.3,0.3,0.4,0.5c0,0.2,0.1,0.3,0.1,0.4c0,0.1,0,0.1,0,0.2
					c0,0.1,0,0.2-0.1,0.3C-86.6,205.9-86.7,206-86.8,206.1"/>
			</g>
			<g id="g72" transform="translate(1020.1774,243.6724)">
				<path id="path74" class="st1" d="M-86.8,206.1c-0.1,0.1-0.2,0.1-0.3,0.1s-0.3,0.1-0.4,0.1s-0.3,0-0.4-0.1H-88
					c-0.1,0-0.2-0.1-0.3-0.2s-0.1-0.1-0.2-0.2c-0.2-0.3-0.2-0.6-0.2-0.9c0-0.2,0.1-0.3,0.2-0.5c0.1-0.1,0.2-0.2,0.3-0.3
					c0.2-0.1,0.4-0.2,0.7-0.2s0.6,0.1,0.8,0.3c0.1,0.1,0.2,0.1,0.2,0.2c0.1,0.1,0.1,0.2,0.1,0.3c0,0.1,0,0.2,0.1,0.3
					c0,0.4-0.1,0.7-0.3,1C-86.7,206-86.7,206.1-86.8,206.1"/>
			</g>
			<g id="g76" transform="translate(1080.4332,266.9498)">
				<path id="path78" class="st1" d="M-86.8,206.1c-0.7,0-1.2-0.6-1.1-1.3c0-0.3,0.2-0.6,0.4-0.8c0.2-0.2,0.5-0.3,0.9-0.3
					c0.5,0,0.9,0.4,1.1,0.9c0,0.1,0.1,0.3,0.1,0.4C-85.6,205.6-86.1,206.1-86.8,206.1"/>
			</g>
			<g id="g80" transform="translate(1048.9938,243.9166)">
				<path id="path82" class="st1" d="M-86.8,206.1c-0.3,0-0.6-0.1-0.8-0.3c-0.2-0.2-0.4-0.5-0.4-0.8c0-0.7,0.5-1.2,1.2-1.2
					c0.5,0,1,0.3,1.1,0.8c0,0.1,0.1,0.2,0.1,0.4C-85.6,205.6-86.1,206.1-86.8,206.1"/>
			</g>
			<g id="g84" transform="translate(1058.0172,258.5845)">
				<path id="path86" class="st1" d="M-86.8,206.1c0.3,0,0.6,0.1,0.9,0.3c0.2,0.2,0.4,0.5,0.4,0.8c0,0.7-0.5,1.2-1.1,1.3
					c-0.7,0-1.2-0.5-1.3-1.1c0-0.1,0-0.3,0.1-0.4C-87.7,206.5-87.3,206.1-86.8,206.1"/>
			</g>
			<g id="g88" transform="translate(1069.2809,289.0059)">
				<path id="path90" class="st1" d="M-86.8,206.1c-0.7,0-1.2-0.6-1.1-1.3c0-0.3,0.2-0.6,0.4-0.8c0.2-0.2,0.5-0.3,0.9-0.3
					c0.5,0,0.9,0.4,1.1,0.9c0,0.1,0.1,0.3,0.1,0.4C-85.6,205.6-86.1,206.1-86.8,206.1"/>
			</g>
			<g id="g92" transform="translate(1118.1041,242.0123)">
				<path id="path94" class="st1" d="M-86.8,206.1c0.1-0.1,0.1-0.1,0.2-0.2c0.2-0.2,0.5-0.3,0.8-0.3c0.2,0,0.5,0,0.7,0.2
					c0.1,0.1,0.1,0.2,0.2,0.3c0.1,0.1,0.2,0.3,0.2,0.5c0.1,0.3,0,0.6-0.2,0.9c0,0.1-0.1,0.1-0.2,0.2c0,0-0.1,0.1-0.2,0.1h-0.1
					c-0.1,0.1-0.3,0.1-0.4,0.2c-0.1,0-0.3,0-0.4-0.1c-0.1,0-0.2-0.1-0.3-0.1c-0.1,0-0.1-0.1-0.2-0.1c-0.3-0.3-0.4-0.6-0.3-1
					c0-0.1,0-0.2,0.1-0.3C-86.8,206.3-86.9,206.2-86.8,206.1"/>
			</g>
			<g id="g96" transform="translate(1105.9283,253.5094)">
				<path id="path98" class="st1" d="M-86.8,206.1c0.1-0.2,0.2-0.4,0.4-0.5c0.1-0.1,0.2-0.1,0.3-0.1h0.1c0.1,0,0.1,0,0.2,0
					c0.1,0,0.2,0,0.3,0c0.3,0,0.5,0.1,0.7,0.4c0.1,0.2,0.3,0.4,0.3,0.6c0,0.1,0,0.3-0.1,0.4c0,0.2-0.1,0.4-0.2,0.5
					c-0.3,0.2-0.5,0.3-0.9,0.4c-0.1,0-0.2,0-0.2,0c-0.1,0-0.2-0.1-0.3-0.1h-0.1c-0.2-0.2-0.3-0.3-0.3-0.4c-0.1-0.1-0.2-0.2-0.3-0.4
					c0-0.1-0.1-0.2-0.1-0.3c0-0.1,0-0.1,0-0.2C-86.9,206.3-86.8,206.2-86.8,206.1"/>
			</g>
			<g id="g100" transform="translate(1089.6071,241.5318)">
				<path id="path102" class="st1" d="M-86.8,206.1c0.7,0,1.2,0.5,1.2,1.2c0,0.3-0.2,0.6-0.4,0.8c-0.2,0.3-0.5,0.4-0.8,0.4
					c-0.7,0-1.2-0.5-1.2-1.2c0-0.1,0-0.2,0.1-0.4C-87.8,206.4-87.3,206.1-86.8,206.1"/>
			</g>
			<g id="g104" transform="translate(1147.7555,245.6451)">
				<path id="path106" class="st1" d="M-86.8,206.1l-12.3,4.5l8.3,27.4l-27.9-8.9v16.2l-23.3-24.8l7.3,49.4l-15.1-10.4l-15.6,29.9
					l-15.6-29.9l-15.1,10.4l7.9-49.6l-23.9,25v-16.2l-27.8,8.9l8.3-27.4l-12.3-4.5l41.2-32.7l-4.9-13.8l39.1,4.9h1.7v13.1l-20.6,0.4
					c0,0,0,3.4-0.1,3.6l-25.5,18.1c-1.4-0.9-3.1-0.9-4.5,0.1c-1.8,1.3-2.3,3.9-1,5.7s3.9,2.3,5.7,1c1.4-1,2-3,1.6-4.7l6.9-4.7
					l-0.2,13.5c-1.6,0.5-2.6,1.9-2.7,3.6c-0.1,2.2,1.7,4.2,3.9,4.4c2.2,0.1,4.2-1.7,4.4-3.9c0.1-1.7-0.8-3.2-2.3-3.9l0.2-15.9
					l13.8-9.6c0,6-0.1,11.8-0.1,14.2c-1.5,0.7-2.5,2.1-2.4,3.8c0,2.2,2,4.1,4.2,4.1s4.1-2,4.1-4.2c0-1.7-1-3.1-2.5-3.8l-0.1-4.2
					l5.8,3.1l-0.1,18.2c-1.5,0.7-2.4,2.2-2.3,3.9c0.1,2.2,2.1,4,4.3,3.9c2.2-0.1,4-2.1,3.9-4.3c-0.1-1.7-1.1-3.1-2.7-3.7v-20l-9-4.8
					v-7.9l0.1-2.7l17.3-0.3v41.3v22.5c-1.6,0.6-2.6,1.9-2.7,3.7c-0.1,2.2,1.7,4.2,3.9,4.3c2.2,0.1,4.2-1.7,4.3-3.9
					c0.1-1.7-0.8-3.2-2.3-3.9v-70.8h16.9l0.1,8.3v9.5l-9,4.8v18.1v7.9c-1.6,0.6-2.6,1.9-2.7,3.6c-0.1,2.2,1.7,4.2,3.9,4.3
					c2.2,0.1,4.2-1.7,4.3-3.9c0.1-1.7-0.8-3.2-2.3-3.9v-8.1v-16.1l5.8-3.1l-0.1,4.2c-1.6,0.6-2.5,2-2.5,3.8c0,2.2,1.9,4.1,4.1,4.2
					c2.2,0,4.1-1.9,4.2-4.1c0-1.7-0.9-3.2-2.4-3.8c0-2.4,0-9.7,0-15.7l13.7,10.7l0.2,16.3c-1.5,0.7-2.4,2.2-2.3,3.9
					c0.1,2.2,2.2,4,4.4,3.9c2.2-0.1,4-2.2,3.9-4.4c-0.1-1.7-1.1-3.1-2.7-3.6l-0.2-13.6l6.9,5.4c-0.4,1.6,0.2,3.2,1.7,4.2
					c1.8,1.3,4.5,0.8,5.7-1c1.3-1.8,0.8-4.5-1-5.7c-1.4-1-3.1-1-4.5-0.1l-5.4-4.1c-7-5.6-15.1-11.7-20.4-16.1v0.1c0-2.9,0-8.9,0-8.9
					h-20.2v-6.3h1.2l39.1-4.9l-4.9,13.8L-86.8,206.1z"/>
			</g>
		</g>
	</g>
</g>
</svg>
